<svg width="16" height="16" viewBox="0 0 16 16" fill="none" xmlns="http://www.w3.org/2000/svg">
<path d="M16 6.47397V9.52603C16 9.58069 15.9892 9.63481 15.9683 9.68531C15.9474 9.73581 15.9167 9.78169 15.8781 9.82034C15.8394 9.85898 15.7935 9.88964 15.743 9.91055C15.6925 9.93147 15.6384 9.94223 15.5838 9.94222H9.94222V15.5838C9.94223 15.6384 9.93148 15.6925 9.91057 15.743C9.88966 15.7935 9.859 15.8394 9.82035 15.8781C9.7817 15.9167 9.73582 15.9474 9.68532 15.9683C9.63482 15.9892 9.58069 16 9.52603 16H6.47397C6.24435 16 6.05778 15.8138 6.05778 15.5838V9.94222H0.416192C0.305815 9.94221 0.199962 9.89836 0.121913 9.82031C0.0438648 9.74226 1.21554e-05 9.63641 0 9.52603L0 6.47397C0 6.41931 0.0107651 6.36519 0.0316808 6.3147C0.0525964 6.2642 0.0832529 6.21832 0.1219 6.17968C0.160547 6.14103 0.206428 6.11037 0.256922 6.08946C0.307417 6.06854 0.361537 6.05778 0.416192 6.05778H6.05778V0.416192C6.05778 0.186161 6.24431 2.52536e-09 6.47397 2.52536e-09H9.52603C9.58069 -6.01861e-06 9.63481 0.010755 9.68531 0.0316685C9.73581 0.052582 9.78169 0.0832382 9.82034 0.121886C9.85898 0.160535 9.88964 0.206418 9.91055 0.256915C9.93147 0.307413 9.94223 0.361535 9.94222 0.416192V6.05778H15.5838C15.6384 6.05777 15.6925 6.06852 15.743 6.08943C15.7935 6.11035 15.8394 6.141 15.8781 6.17965C15.9167 6.2183 15.9474 6.26419 15.9683 6.31469C15.9892 6.36519 16 6.41931 16 6.47397Z" fill="#5B5D68"/>
</svg>
