<svg width="16" height="4" viewBox="0 0 16 4" fill="none" xmlns="http://www.w3.org/2000/svg">
<path d="M16 0.474053V3.52611C16 3.58077 15.9892 3.63489 15.9683 3.68539C15.9474 3.73589 15.9167 3.78177 15.8781 3.82042C15.8394 3.85907 15.7935 3.88973 15.743 3.91064C15.6925 3.93155 15.6384 3.94231 15.5838 3.94231C6.05107 3.94231 8.81318 3.94231 0.416192 3.94231C0.305815 3.9423 0.199962 3.89844 0.121913 3.82039C0.0438648 3.74235 1.21554e-05 3.63649 0 3.52611L0 0.474053C0 0.419398 0.0107651 0.365278 0.0316807 0.314784C0.0525964 0.264289 0.0832529 0.218408 0.1219 0.179761C0.160547 0.141114 0.206428 0.110458 0.256922 0.0895424C0.307417 0.0686268 0.361537 0.0578613 0.416192 0.0578613C8.8132 0.0578613 6.05103 0.0578613 15.5838 0.0578613C15.6384 0.0578493 15.6925 0.0686063 15.743 0.0895176C15.7935 0.110429 15.8394 0.141085 15.8781 0.179734C15.9167 0.218384 15.9474 0.26427 15.9683 0.31477C15.9892 0.36527 16 0.419395 16 0.474053Z" fill="#5B5D68"/>
</svg>
