<svg width="12" height="16" viewBox="0 0 12 16" fill="none" xmlns="http://www.w3.org/2000/svg">
<path d="M3.45428 15.9045L11.1281 8.23083C11.2503 8.10856 11.2503 7.89207 11.1281 7.76981L3.45395 0.0955206C3.39281 0.0343979 3.30989 6.10352e-05 3.22344 6.10352e-05C3.13699 6.10352e-05 3.05407 0.0343979 2.99293 0.0955206L0.875803 2.21265C0.845468 2.24288 0.82141 2.2788 0.805015 2.31836C0.78862 2.35792 0.780212 2.40034 0.780274 2.44316C0.780274 2.52662 0.812063 2.60993 0.875803 2.67367L6.20229 8.00015L0.875966 13.3268C0.753539 13.4491 0.753702 13.6656 0.875966 13.7878L2.99309 15.9045C3.02336 15.9348 3.05931 15.9588 3.09887 15.9752C3.13844 15.9916 3.18085 16.0001 3.22369 16.0001C3.26652 16.0001 3.30893 15.9916 3.3485 15.9752C3.38807 15.9588 3.42401 15.9348 3.45428 15.9045Z" fill="#5B5D68"/>
</svg>
