<svg width="12" height="16" viewBox="0 0 12 16" fill="none" xmlns="http://www.w3.org/2000/svg">
<path d="M8.54593 0.0956698L0.871972 7.76931C0.749707 7.89157 0.749707 8.10806 0.871972 8.23032L8.54626 15.9046C8.57652 15.9349 8.61246 15.9589 8.65201 15.9753C8.69156 15.9917 8.73396 16.0001 8.77677 16.0001C8.81958 16.0001 8.86198 15.9917 8.90153 15.9753C8.94108 15.9589 8.97702 15.9349 9.00728 15.9046L11.1242 13.7875C11.1546 13.7573 11.1787 13.7213 11.1951 13.6818C11.2115 13.6422 11.2199 13.5998 11.2198 13.557C11.2198 13.4735 11.188 13.3904 11.1242 13.3265L5.79792 7.99982L11.1241 2.67333C11.2467 2.55106 11.2463 2.33457 11.1241 2.21231L9.00711 0.0956698C8.97685 0.0653609 8.9409 0.0413161 8.90134 0.0249107C8.86177 0.00850524 8.81936 6.10352e-05 8.77652 6.10352e-05C8.73369 6.10352e-05 8.69128 0.00850524 8.65171 0.0249107C8.61214 0.0413161 8.5762 0.0653609 8.54593 0.0956698Z" fill="#5B5D68"/>
</svg>
