<svg width="15" height="14" viewBox="0 0 15 14" fill="none" xmlns="http://www.w3.org/2000/svg">
<path d="M7.47917 0.333252C6.16063 0.333252 4.8717 0.724245 3.77537 1.45679C2.67904 2.18933 1.82456 3.23052 1.31997 4.4487C0.815389 5.66687 0.683366 7.00731 0.940601 8.30052C1.19784 9.59373 1.83277 10.7816 2.76512 11.714C3.69747 12.6463 4.88536 13.2813 6.17857 13.5385C7.47177 13.7957 8.81222 13.6637 10.0304 13.1591C11.2486 12.6545 12.2898 11.8 13.0223 10.7037C13.7548 9.60739 14.1458 8.31846 14.1458 6.99992C14.1439 5.2324 13.4409 3.53784 12.1911 2.28802C10.9412 1.0382 9.24668 0.335193 7.47917 0.333252ZM9.84784 8.92992L7.18117 7.59659C7.07035 7.54121 6.97715 7.45604 6.91203 7.35065C6.84691 7.24526 6.81245 7.12381 6.8125 6.99992V3.66658C6.8125 3.48977 6.88274 3.3202 7.00777 3.19518C7.13279 3.07016 7.30236 2.99992 7.47917 2.99992C7.65598 2.99992 7.82555 3.07016 7.95057 3.19518C8.0756 3.3202 8.14584 3.48977 8.14584 3.66658V6.58792L10.4438 7.73658C10.6021 7.81562 10.7225 7.95428 10.7785 8.12206C10.8345 8.28984 10.8215 8.47301 10.7425 8.63125C10.6635 8.7895 10.5248 8.90987 10.357 8.96588C10.1892 9.02189 10.0061 9.00895 9.84784 8.92992Z" fill="white"/>
</svg>
