<svg width="115" height="32" viewBox="0 0 115 32" fill="none" xmlns="http://www.w3.org/2000/svg">
<path d="M21.0314 0.197266L3.64551 17.6312V28.0657L31.4274 0.197266H21.0314Z" fill="#FDBC00"/>
<path d="M14.0471 17.6411L0 31.7267H10.396L24.4383 17.6411H14.0471Z" fill="#CA0800"/>
<path d="M55.6286 17.6411L41.5815 31.7267H51.9775L66.0198 17.6411H55.6286Z" fill="#CA0800"/>
<path d="M62.6408 0.196777L45.2549 17.6308V28.0652L73.0368 0.196777H62.6408Z" fill="#FDBC00"/>
<path d="M41.8283 0.196777L24.4424 17.6308V28.0652L52.2243 0.196777H41.8283Z" fill="#FDBC00"/>
<path d="M34.8099 17.6406L20.7676 31.7262H31.1588L45.2059 17.6406H34.8099Z" fill="#CA0800"/>
<path d="M103.944 0.196777L86.5581 17.6308V28.0652L114.34 0.196777H103.944Z" fill="#FDBC00"/>
<path d="M83.1746 0.196777L66.0962 17.3233V27.7577L93.5706 0.196777H83.1746Z" fill="#FDBC00"/>
<path d="M96.9559 17.6411L82.9136 31.7267H93.3048L107.352 17.6411H96.9559Z" fill="#CA0800"/>
<path d="M76.1873 17.6406L62.145 31.7262H72.5362L86.5833 17.6406H76.1873Z" fill="#CA0800"/>
</svg>
