<svg width="17" height="12" viewBox="0 0 17 12" fill="none" xmlns="http://www.w3.org/2000/svg">
<path d="M16.1471 0.847412H0.811911C0.723748 0.847412 0.639196 0.882435 0.576856 0.944775C0.514515 1.00712 0.479492 1.09167 0.479492 1.17983L0.479492 10.82C0.479492 10.9082 0.514515 10.9927 0.576856 11.055C0.639196 11.1174 0.723748 11.1524 0.811911 11.1524H16.1471C16.2352 11.1524 16.3198 11.1174 16.3821 11.055C16.4445 10.9927 16.4795 10.9082 16.4795 10.82V1.17983C16.4795 0.996336 16.3304 0.847412 16.1471 0.847412ZM15.5928 3.78816C15.5928 3.83283 15.5808 3.87669 15.558 3.91514C15.5353 3.95359 15.5026 3.98522 15.4635 4.00672L8.60066 7.76472C8.56393 7.78484 8.52272 7.7954 8.48084 7.79543C8.43896 7.79545 8.39775 7.78495 8.36098 7.76489L1.49586 4.00689C1.45662 3.98542 1.42387 3.95378 1.40106 3.91529C1.37825 3.87681 1.36622 3.8329 1.36622 3.78816V2.53328C1.36621 2.49038 1.37728 2.4482 1.39834 2.41083C1.4194 2.37346 1.44975 2.34215 1.48645 2.31994C1.52315 2.29773 1.56496 2.28536 1.60784 2.28404C1.65072 2.28272 1.69322 2.29248 1.73122 2.31238L8.32708 5.76323C8.41883 5.81143 8.54332 5.81126 8.6354 5.76306L15.2279 2.31255C15.266 2.29279 15.3084 2.28315 15.3512 2.28454C15.3941 2.28593 15.4358 2.29832 15.4725 2.3205C15.5091 2.34268 15.5395 2.37392 15.5605 2.41121C15.5816 2.44851 15.5928 2.4906 15.5929 2.53344L15.5928 3.78816Z" fill="white"/>
</svg>
