<svg width="17" height="16" viewBox="0 0 17 16" fill="none" xmlns="http://www.w3.org/2000/svg">
<path d="M8.39658 0C5.14886 0 2.50635 2.64251 2.50635 5.89056C2.50635 6.73777 2.67975 7.54667 3.02149 8.29499C4.49421 11.5176 7.31783 14.9201 8.14834 15.886C8.17913 15.9217 8.21726 15.9504 8.26012 15.97C8.30299 15.9897 8.34959 15.9998 8.39674 15.9998C8.44389 15.9998 8.49049 15.9897 8.53336 15.97C8.57622 15.9504 8.61435 15.9217 8.64514 15.886C9.47533 14.9203 12.2989 11.518 13.7722 8.29499C14.1141 7.54667 14.2873 6.73777 14.2873 5.89056C14.287 2.64251 11.6445 0 8.39658 0ZM8.39658 8.95013C6.70951 8.95013 5.33684 7.57746 5.33684 5.89039C5.33684 4.20317 6.70951 2.83049 8.39658 2.83049C10.0836 2.83049 11.4563 4.20317 11.4563 5.89039C11.4565 7.57746 10.0838 8.95013 8.39658 8.95013Z" fill="#CA0800"/>
</svg>
