<svg width="13" height="16" viewBox="0 0 13 16" fill="none" xmlns="http://www.w3.org/2000/svg">
<path d="M6.4791 0C3.23138 0 0.588867 2.64251 0.588867 5.89056C0.588867 6.73777 0.762273 7.54667 1.10401 8.29499C2.57673 11.5176 5.40035 14.9201 6.23086 15.886C6.26165 15.9217 6.29978 15.9504 6.34264 15.97C6.38551 15.9897 6.43211 15.9998 6.47926 15.9998C6.52641 15.9998 6.57301 15.9897 6.61588 15.97C6.65874 15.9504 6.69687 15.9217 6.72766 15.886C7.55785 14.9203 10.3815 11.518 11.8547 8.29499C12.1966 7.54667 12.3698 6.73777 12.3698 5.89056C12.3695 2.64251 9.72698 0 6.4791 0ZM6.4791 8.95013C4.79203 8.95013 3.41936 7.57746 3.41936 5.89039C3.41936 4.20317 4.79203 2.83049 6.4791 2.83049C8.16616 2.83049 9.53883 4.20317 9.53883 5.89039C9.539 7.57746 8.16632 8.95013 6.4791 8.95013Z" fill="white"/>
</svg>
