<svg width="20" height="21" viewBox="0 0 20 21" fill="none" xmlns="http://www.w3.org/2000/svg">
<path d="M19.8537 16.1048L15.6855 11.9368C15.5934 11.8448 15.4686 11.7931 15.3384 11.7931C15.2082 11.7931 15.0834 11.8448 14.9913 11.9368L12.8016 14.1265C12.2063 13.962 10.6241 13.3829 8.80375 11.5632C6.91513 9.67439 6.14992 7.79176 5.96012 7.25937L8.13698 5.08251C8.18263 5.03696 8.21886 4.98284 8.24358 4.92326C8.26829 4.86369 8.28101 4.79982 8.28101 4.73532C8.28101 4.67082 8.26829 4.60696 8.24358 4.54738C8.21886 4.48781 8.18263 4.43369 8.13698 4.38813L3.96878 0.219943C3.87669 0.127886 3.75181 0.0761719 3.6216 0.0761719C3.49138 0.0761719 3.3665 0.127886 3.27441 0.219943L0.837986 2.65658C0.806437 2.68803 0.779364 2.72367 0.757528 2.7625L0.753035 2.76764C-1.18673 5.15163 0.754961 10.4807 5.17394 14.8999C8.31865 18.0444 12.1288 20.0761 14.8813 20.0761C15.8639 20.0761 16.673 19.8273 17.2869 19.3362L17.3443 19.2968C17.3692 19.2799 17.3924 19.2605 17.4136 19.239L19.8537 16.799C19.9457 16.7069 19.9973 16.5821 19.9973 16.4519C19.9973 16.3217 19.9457 16.1969 19.8537 16.1048Z" fill="#5B5D68"/>
</svg>
