<svg width="17" height="16" viewBox="0 0 17 16" fill="none" xmlns="http://www.w3.org/2000/svg">
<path d="M16.2794 12.8229L12.9449 9.48854C12.8712 9.4149 12.7713 9.37354 12.6672 9.37354C12.5631 9.37354 12.4632 9.4149 12.3895 9.48854L10.6378 11.2403C10.1615 11.1087 8.89577 10.6454 7.43948 9.18964C5.92859 7.67858 5.31642 6.17247 5.16458 5.74656L6.90606 4.00507C6.94259 3.96863 6.97157 3.92533 6.99134 3.87767C7.01112 3.83001 7.02129 3.77892 7.02129 3.72732C7.02129 3.67572 7.01112 3.62463 6.99134 3.57697C6.97157 3.52931 6.94259 3.48602 6.90606 3.44957L3.57151 0.115017C3.49784 0.0413714 3.39793 0 3.29376 0C3.18959 0 3.08968 0.0413714 3.01601 0.115017L1.06687 2.06432C1.04163 2.08949 1.01998 2.118 1.00251 2.14906L0.998912 2.15317C-0.552899 4.06037 1.00045 8.32361 4.53564 11.859C7.0514 14.3746 10.0996 16 12.3015 16C13.0876 16 13.7349 15.8009 14.226 15.408L14.2719 15.3765C14.2919 15.363 14.3104 15.3475 14.3274 15.3303L16.2794 13.3783C16.353 13.3046 16.3943 13.2047 16.3943 13.1006C16.3943 12.9965 16.353 12.8966 16.2794 12.8229Z" fill="black"/>
</svg>
