<svg width="17" height="16" viewBox="0 0 17 16" fill="none" xmlns="http://www.w3.org/2000/svg">
<path d="M16.3624 12.8229L13.0279 9.48854C12.9542 9.4149 12.8543 9.37354 12.7502 9.37354C12.6461 9.37354 12.5462 9.4149 12.4725 9.48854L10.7208 11.2403C10.2445 11.1087 8.97878 10.6454 7.52249 9.18964C6.01159 7.67858 5.39943 6.17247 5.24759 5.74656L6.98907 4.00507C7.0256 3.96863 7.05458 3.92533 7.07435 3.87767C7.09413 3.83001 7.1043 3.77892 7.1043 3.72732C7.1043 3.67572 7.09413 3.62463 7.07435 3.57697C7.05458 3.52931 7.0256 3.48602 6.98907 3.44957L3.65452 0.115017C3.58085 0.0413714 3.48094 0 3.37677 0C3.2726 0 3.17269 0.0413714 3.09902 0.115017L1.14988 2.06432C1.12464 2.08949 1.10298 2.118 1.08551 2.14906L1.08192 2.15317C-0.469891 4.06037 1.08346 8.32361 4.61865 11.859C7.13441 14.3746 10.1826 16 12.3845 16C13.1706 16 13.8179 15.8009 14.309 15.408L14.3549 15.3765C14.3749 15.363 14.3934 15.3475 14.4104 15.3303L16.3624 13.3783C16.436 13.3046 16.4774 13.2047 16.4774 13.1006C16.4774 12.9965 16.436 12.8966 16.3624 12.8229Z" fill="white"/>
</svg>
