<svg width="60" height="60" viewBox="0 0 60 60" fill="none" xmlns="http://www.w3.org/2000/svg">
<path d="M16.0873 36.7C14.7109 36.6981 13.3735 36.2432 12.2814 35.4055C11.1893 34.5678 10.4033 33.3939 10.0448 32.065L6.80981 19.9925C6.59502 19.2 6.53966 18.3727 6.64694 17.5586C6.75423 16.7445 7.02203 15.9598 7.43481 15.25C7.84347 14.5373 8.38959 13.9129 9.04148 13.4129C9.69336 12.913 10.438 12.5474 11.2323 12.3375L57.1123 0.0425232C57.34 -0.020735 57.5809 -0.0179117 57.807 0.0506634C58.0331 0.119238 58.235 0.250734 58.3892 0.429789C58.5433 0.608844 58.6433 0.828066 58.6775 1.06185C58.7117 1.29563 58.6787 1.53431 58.5823 1.75002L52.3348 16.0125L54.1623 22.8325C54.6948 24.8325 53.5048 26.8925 51.5073 27.4275L17.6998 36.4875C17.1737 36.6275 16.6317 36.6989 16.0873 36.7ZM55.2473 3.13002L11.8773 14.7525C11.4007 14.878 10.9538 15.0972 10.5628 15.3972C10.1718 15.6973 9.84443 16.0721 9.59981 16.5C9.09981 17.365 8.96481 18.3775 9.22481 19.3425L12.4598 31.415C12.5869 31.891 12.8065 32.3372 13.1062 32.7283C13.4058 33.1193 13.7795 33.4475 14.206 33.694C14.6325 33.9406 15.1034 34.1007 15.5917 34.1652C16.0801 34.2297 16.5764 34.1974 17.0523 34.07L50.8573 25.01C51.1775 24.9244 51.4507 24.7152 51.6166 24.4283C51.7826 24.1414 51.8278 23.8003 51.7423 23.48L49.8023 16.24C49.7287 15.9659 49.7507 15.6749 49.8648 15.415L55.2473 3.13002Z" fill="#CA0800"/>
<path d="M9.635 25.7051L8.985 23.2876L27.0975 18.4351C27.4186 18.3502 27.7602 18.3961 28.0475 18.5626L30.6575 20.0726L50.6875 14.7076L51.3325 17.1251L30.805 22.6226C30.4847 22.7068 30.1441 22.6609 29.8575 22.4951L27.2475 20.9851L9.635 25.7051ZM52.95 23.1576L52.305 20.7401L54.7225 20.0926C55.6823 19.8343 56.5004 19.2055 56.9968 18.3443C57.4932 17.4832 57.6275 16.4602 57.37 15.5001L54.6175 5.24009L57.035 4.59009L59.7875 14.8526C60.2131 16.4541 59.9866 18.1589 59.1576 19.5937C58.3287 21.0285 56.9649 22.0763 55.365 22.5076L52.95 23.1576ZM25.27 39.5026C24.4442 39.5023 23.6414 39.2298 22.9861 38.7272C22.3308 38.2247 21.8594 37.5201 21.645 36.7226L20.9975 34.3051L23.415 33.6601L24.0625 36.0776C24.1486 36.3973 24.3581 36.6699 24.6449 36.8353C24.9318 37.0008 25.2726 37.0457 25.5925 36.9601L32.8325 35.0201C33.1527 34.9345 33.4258 34.7253 33.5918 34.4383C33.7578 34.1514 33.803 33.8103 33.7175 33.4901L33.0675 31.0751L35.485 30.4251L36.1325 32.8401C36.3885 33.8011 36.253 34.8244 35.7558 35.6857C35.2586 36.5471 34.4402 37.1761 33.48 37.4351L26.2375 39.3776C25.915 39.4601 25.59 39.5026 25.27 39.5026ZM6.25 60.0001H1.25C0.918479 60.0001 0.600537 59.8684 0.366117 59.634C0.131696 59.3996 0 59.0816 0 58.7501V38.7501C0 38.4186 0.131696 38.1006 0.366117 37.8662C0.600537 37.6318 0.918479 37.5001 1.25 37.5001H6.25C8.3175 37.5001 10 39.1826 10 41.2501V56.2501C10 58.3176 8.3175 60.0001 6.25 60.0001ZM2.5 57.5001H6.25C6.9375 57.5001 7.5 56.9376 7.5 56.2501V41.2501C7.5 40.5626 6.9375 40.0001 6.25 40.0001H2.5V57.5001Z" fill="#CA0800"/>
<path d="M8.75 47.5H30.025V50H8.75V47.5Z" fill="#CA0800"/>
<path d="M32.5 52.5C30.4325 52.5 28.75 50.8175 28.75 48.75C28.75 46.6825 30.4325 45 32.5 45C34.5675 45 36.25 46.6825 36.25 48.75C36.25 50.8175 34.5675 52.5 32.5 52.5ZM32.5 47.5C31.8125 47.5 31.25 48.0625 31.25 48.75C31.25 49.4375 31.8125 50 32.5 50C33.1875 50 33.75 49.4375 33.75 48.75C33.75 48.0625 33.1875 47.5 32.5 47.5Z" fill="#CA0800"/>
<path d="M28.1396 37.57L30.5521 36.9075L33.0521 46.005L30.6396 46.6675L28.1396 37.57Z" fill="#CA0800"/>
</svg>
