<svg width="60" height="60" viewBox="0 0 60 60" fill="none" xmlns="http://www.w3.org/2000/svg">
<path d="M46.6921 59.9849C44.2571 59.9849 41.4371 59.2149 38.1971 57.6774C34.5821 55.9624 32.8321 56.0349 31.6871 56.0774C30.7521 56.1199 29.7921 56.1524 28.8371 55.1974C28.5021 54.8624 26.9796 53.0374 29.9721 50.0449C31.4646 48.5524 33.5121 48.1224 35.2896 48.0974L24.9246 37.7324C24.586 37.3937 24.3173 36.9917 24.134 36.5492C23.9508 36.1068 23.8564 35.6326 23.8564 35.1536C23.8564 34.1864 24.2407 33.2588 24.9246 32.5749C25.6085 31.891 26.5361 31.5067 27.5033 31.5067C28.4706 31.5067 29.3982 31.891 30.0821 32.5749L34.3921 36.8824C34.7779 36.1101 35.4258 35.5002 36.22 35.1618C37.0142 34.8233 37.9028 34.7783 38.7271 35.0349C38.9769 34.325 39.4412 33.7103 40.0557 33.2758C40.6702 32.8414 41.4045 32.6087 42.1571 32.6099H42.1646C43.0471 32.6099 43.8796 32.9199 44.5371 33.4924C44.7953 32.9764 45.1722 32.5289 45.6369 32.1867C46.1016 31.8446 46.6407 31.6174 47.2102 31.524C47.7796 31.4306 48.3631 31.4735 48.9127 31.6492C49.4623 31.8249 49.9625 32.1284 50.3721 32.5349L57.1221 39.2874C61.3571 43.5224 60.8896 49.6574 55.9771 54.5749L53.1471 57.4049C51.4021 59.1274 49.2621 59.9849 46.6921 59.9849ZM32.3646 53.5599C33.7296 53.5599 35.8296 53.7849 39.2696 55.4199C46.7296 58.9624 49.7546 57.2374 51.3871 55.6324L54.2021 52.8174L54.2046 52.8149C57.1846 49.8299 59.2696 44.9724 55.3746 41.0774L48.6046 34.3074C48.4984 34.2009 48.3722 34.1163 48.2334 34.0585C48.0945 34.0007 47.9455 33.9709 47.7951 33.9706C47.4913 33.9702 47.1998 34.0904 46.9846 34.3049C46.7694 34.5194 46.6483 34.8106 46.6478 35.1144C46.6474 35.4182 46.7676 35.7097 46.9821 35.9249L48.6721 37.6149C48.7891 37.7307 48.882 37.8685 48.9454 38.0204C49.0088 38.1723 49.0414 38.3353 49.0414 38.4999C49.0414 38.6645 49.0088 38.8275 48.9454 38.9794C48.882 39.1313 48.7891 39.2691 48.6721 39.3849C48.4377 39.6192 48.1198 39.7509 47.7883 39.7509C47.4569 39.7509 47.139 39.6192 46.9046 39.3849L42.9671 35.4474C42.8621 35.3423 42.7374 35.259 42.6001 35.2024C42.4628 35.1457 42.3156 35.1169 42.1671 35.1174H42.1646C41.9379 35.1163 41.716 35.1824 41.5269 35.3075C41.3379 35.4326 41.1902 35.6111 41.1027 35.8202C41.0151 36.0293 40.9916 36.2597 41.0351 36.4821C41.0786 36.7046 41.1872 36.9092 41.3471 37.0699L44.1596 39.8824C44.2766 39.9982 44.3695 40.136 44.4329 40.2879C44.4963 40.4398 44.5289 40.6028 44.5289 40.7674C44.5289 40.932 44.4963 41.095 44.4329 41.2469C44.3695 41.3988 44.2766 41.5366 44.1596 41.6524C43.9252 41.8867 43.6073 42.0184 43.2758 42.0184C42.9444 42.0184 42.6265 41.8867 42.3921 41.6524L38.4546 37.7149C38.2398 37.4997 37.9483 37.3787 37.6442 37.3785C37.3402 37.3783 37.0485 37.4988 36.8333 37.7136C36.6182 37.9285 36.4972 38.22 36.497 38.524C36.4967 38.828 36.6173 39.1197 36.8321 39.3349L39.6446 42.1474C39.7616 42.2632 39.8545 42.401 39.9179 42.5529C39.9813 42.7048 40.0139 42.8678 40.0139 43.0324C40.0139 43.197 39.9813 43.36 39.9179 43.5119C39.8545 43.6638 39.7616 43.8016 39.6446 43.9174C39.4102 44.1517 39.0923 44.2834 38.7608 44.2834C38.4294 44.2834 38.1115 44.1517 37.8771 43.9174L28.3146 34.3549C28.2081 34.2484 28.0816 34.1638 27.9424 34.1062C27.8032 34.0485 27.654 34.0189 27.5033 34.0189C27.3527 34.0189 27.2035 34.0485 27.0643 34.1062C26.9251 34.1638 26.7986 34.2484 26.6921 34.3549C26.5856 34.4614 26.5011 34.5879 26.4434 34.7271C26.3857 34.8663 26.3561 35.0155 26.3561 35.1661C26.3561 35.3168 26.3857 35.466 26.4434 35.6052C26.5011 35.7444 26.5856 35.8709 26.6921 35.9774L39.6296 48.9149C39.8262 49.1108 39.9516 49.3668 39.986 49.6422C40.0205 49.9176 39.9619 50.1966 39.8196 50.4349C39.6771 50.673 39.4598 50.8573 39.2016 50.9591C38.9434 51.0608 38.6588 51.0743 38.3921 50.9974C38.3446 50.9849 33.8646 49.6974 31.7371 51.8249C30.7696 52.7924 30.6271 53.3874 30.6521 53.5224C30.7571 53.5974 30.7796 53.6199 31.5846 53.5899C31.8196 53.5724 32.0771 53.5599 32.3646 53.5599Z" fill="#11AB47"/>
<path d="M21.25 50C21.1445 50.0004 21.0395 49.9869 20.9375 49.96C20.7275 49.905 0 44.3225 0 25.375V8.475C0.000109299 8.21811 0.0793656 7.96749 0.226984 7.75724C0.374602 7.547 0.583412 7.38734 0.825 7.3L20.825 0.075C21.0975 -0.025 21.4 -0.025 21.675 0.075L41.675 7.3C41.9166 7.38734 42.1254 7.547 42.273 7.75724C42.4206 7.96749 42.4999 8.21811 42.5 8.475V25.375C42.5 25.755 42.5 26.135 42.4725 26.5125C42.4414 26.8402 42.2854 27.1435 42.0369 27.3594C41.7884 27.5754 41.4664 27.6875 41.1375 27.6725C40.9736 27.6611 40.8137 27.6175 40.6667 27.5442C40.5197 27.4709 40.3886 27.3694 40.2808 27.2454C40.1731 27.1214 40.0909 26.9774 40.0388 26.8216C39.9868 26.6659 39.9659 26.5013 39.9775 26.3375C40 26.0175 40 25.695 40 25.375V9.3525L21.25 2.58L2.5 9.3525V25.375C2.5 41.1925 18.77 46.7025 21.25 47.45C21.63 47.335 22.3325 47.11 23.255 46.7575C23.4083 46.6987 23.5717 46.6707 23.7358 46.6751C23.9 46.6795 24.0616 46.7162 24.2116 46.783C24.3616 46.8499 24.4969 46.9456 24.6099 47.0648C24.7228 47.1839 24.8112 47.3242 24.87 47.4775C24.9288 47.6308 24.9568 47.7942 24.9524 47.9583C24.948 48.1225 24.9113 48.2842 24.8445 48.4341C24.7776 48.5841 24.6819 48.7194 24.5627 48.8324C24.4436 48.9453 24.3033 49.0337 24.15 49.0925C22.5725 49.6975 21.5725 49.96 21.5725 49.96C21.4671 49.9868 21.3588 50.0003 21.25 50Z" fill="#11AB47"/>
<path d="M18.75 30C18.4184 30 18.1002 29.8688 17.865 29.635L15.365 27.135C15.1373 26.8992 15.0113 26.5835 15.0142 26.2557C15.017 25.928 15.1485 25.6145 15.3802 25.3827C15.612 25.151 15.9255 25.0195 16.2532 25.0167C16.581 25.0138 16.8967 25.1398 17.1325 25.3675L19.6325 27.8675C19.8068 28.0423 19.9254 28.2648 19.9734 28.5069C20.0214 28.749 19.9966 28.9999 19.9022 29.228C19.8079 29.456 19.6481 29.6511 19.443 29.7885C19.238 29.9258 18.9968 29.9995 18.75 30ZM23.75 27.5C23.4185 27.5 23.1005 27.3683 22.8661 27.1339C22.6317 26.8995 22.5 26.5815 22.5 26.25V23.75C22.5 23.4185 22.6317 23.1005 22.8661 22.8661C23.1005 22.6317 23.4185 22.5 23.75 22.5C24.0815 22.5 24.3995 22.6317 24.6339 22.8661C24.8683 23.1005 25 23.4185 25 23.75V26.25C25 26.5815 24.8683 26.8995 24.6339 27.1339C24.3995 27.3683 24.0815 27.5 23.75 27.5ZM16.25 35H13.75C13.4185 35 13.1005 34.8683 12.8661 34.6339C12.6317 34.3995 12.5 34.0815 12.5 33.75C12.5 33.4185 12.6317 33.1005 12.8661 32.8661C13.1005 32.6317 13.4185 32.5 13.75 32.5H16.25C16.5815 32.5 16.8995 32.6317 17.1339 32.8661C17.3683 33.1005 17.5 33.4185 17.5 33.75C17.5 34.0815 17.3683 34.3995 17.1339 34.6339C16.8995 34.8683 16.5815 35 16.25 35Z" fill="#11AB47"/>
</svg>
