<svg width="54" height="60" viewBox="0 0 54 60" fill="none" xmlns="http://www.w3.org/2000/svg">
<path d="M52.3575 7.55247L27.3575 0.0524728C27.1235 -0.0174909 26.8741 -0.0174909 26.64 0.0524728L1.64004 7.55247C1.11246 7.70997 0.75 8.19747 0.75 8.75001V36.25C0.75 47.305 17.605 57.1375 26.63 59.945C26.75 59.9825 26.8751 60 27 60C27.1249 60 27.25 59.9825 27.37 59.945C36.395 57.135 53.25 47.3049 53.25 36.2499V8.75001C53.25 8.19747 52.8875 7.71243 52.3575 7.55247ZM50.75 36.2499C50.75 45.0274 36.8426 54.2574 27 57.4399C17.1575 54.2574 3.24996 45.0274 3.24996 36.2499V9.68001L27 2.55501L50.75 9.68001V36.2499Z" fill="#CA0800"/>
<path d="M44.8575 13.1326L27.3575 7.88255C27.1235 7.81259 26.8741 7.81259 26.64 7.88255L9.14004 13.1326C8.61246 13.2901 8.25 13.7776 8.25 14.3301V36.2501C8.25 41.1527 17.9075 48.5927 26.545 51.9701C26.6899 52.0277 26.845 52.0551 27 52.0551C27.155 52.0551 27.31 52.0275 27.455 51.9701C36.0925 48.5926 45.75 41.1501 45.75 36.25V14.3301C45.75 13.7776 45.3875 13.2925 44.8575 13.1326ZM43.25 36.25C43.25 39.22 35.6525 45.9475 27 49.46C18.3475 45.9449 10.75 39.22 10.75 36.25V15.2601L27 10.3851L43.25 15.2601V36.25Z" fill="#CA0800"/>
<path d="M37.8825 27.8649L27.8825 17.8649C27.395 17.3774 26.6025 17.3774 26.115 17.8649L16.115 27.8649C15.94 28.0396 15.8209 28.2624 15.7728 28.5051C15.7247 28.7477 15.7499 28.9991 15.845 29.2274C15.9395 29.456 16.0997 29.6514 16.3053 29.7889C16.5109 29.9264 16.7527 29.9998 17 29.9999H18.2501V38.7499C18.2501 39.4399 18.8101 40 19.5001 40H24.5002C25.1902 40 25.7502 39.4399 25.7502 38.7499V32.5H28.2502V38.7499C28.2502 39.4399 28.8102 40 29.5002 40H34.5C35.19 40 35.75 39.4399 35.75 38.7499V29.9999H37.0001C37.505 29.9999 37.9625 29.6974 38.1526 29.2274C38.2477 28.9991 38.2729 28.7477 38.2248 28.505C38.1767 28.2624 38.0575 28.0396 37.8825 27.8649ZM33.25 28.7499V37.4999H30.75V31.2499C30.75 30.5599 30.19 29.9999 29.5 29.9999H24.4999C23.8099 29.9999 23.2499 30.5599 23.2499 31.2499V37.4999H20.7499V28.7499C20.7499 28.2149 20.4124 27.7574 19.9375 27.5799L27 20.5174L34.0625 27.58C33.5875 27.7574 33.25 28.2149 33.25 28.7499Z" fill="#CA0800"/>
</svg>
