<svg width="60" height="60" viewBox="0 0 60 60" fill="none" xmlns="http://www.w3.org/2000/svg">
<path d="M48.75 52.5H6.25C4.59301 52.498 3.00445 51.8389 1.83277 50.6672C0.661102 49.4956 0.00198482 47.907 0 46.25L0 43.75C0 38.925 3.925 35 8.75 35H34.625C34.9565 35 35.2745 35.1317 35.5089 35.3661C35.7433 35.6005 35.875 35.9185 35.875 36.25C35.875 36.5815 35.7433 36.8995 35.5089 37.1339C35.2745 37.3683 34.9565 37.5 34.625 37.5H8.75C7.09301 37.502 5.50445 38.1611 4.33278 39.3328C3.1611 40.5044 2.50198 42.093 2.5 43.75V46.25C2.5 48.3175 4.1825 50 6.25 50H48.75C50.8175 50 52.5 48.3175 52.5 46.25V43.75C52.5 42.185 51.9175 40.6925 50.8575 39.5475C50.746 39.4268 50.6594 39.2854 50.6026 39.1313C50.5458 38.9772 50.5199 38.8134 50.5264 38.6493C50.5329 38.4851 50.5717 38.3239 50.6405 38.1747C50.7093 38.0256 50.8069 37.8915 50.9275 37.78C51.0482 37.6685 51.1896 37.5819 51.3437 37.5251C51.4978 37.4683 51.6616 37.4424 51.8257 37.4489C51.9899 37.4554 52.1511 37.4942 52.3003 37.563C52.4494 37.6318 52.5835 37.7293 52.695 37.85C54.18 39.46 55 41.555 55 43.75V46.25C55 49.695 52.195 52.5 48.75 52.5Z" fill="#CA0800"/>
<path d="M5 60C2.2425 60 0 57.7575 0 55V46.25C0 45.9185 0.131696 45.6005 0.366117 45.3661C0.600537 45.1317 0.918479 45 1.25 45C1.58152 45 1.89946 45.1317 2.13388 45.3661C2.3683 45.6005 2.5 45.9185 2.5 46.25V55C2.5 56.3775 3.6225 57.5 5 57.5C6.3775 57.5 7.5 56.3775 7.5 55V51.25C7.5 50.9185 7.6317 50.6005 7.86612 50.3661C8.10054 50.1317 8.41848 50 8.75 50C9.08152 50 9.39946 50.1317 9.63388 50.3661C9.8683 50.6005 10 50.9185 10 51.25V55C10 57.7575 7.7575 60 5 60ZM50 60C47.2425 60 45 57.7575 45 55V51.25C45 50.9185 45.1317 50.6005 45.3661 50.3661C45.6005 50.1317 45.9185 50 46.25 50C46.5815 50 46.8995 50.1317 47.1339 50.3661C47.3683 50.6005 47.5 50.9185 47.5 51.25V55C47.5 56.3775 48.6225 57.5 50 57.5C51.3775 57.5 52.5 56.3775 52.5 55V46.25C52.5 45.9185 52.6317 45.6005 52.8661 45.3661C53.1005 45.1317 53.4185 45 53.75 45C54.0815 45 54.3995 45.1317 54.6339 45.3661C54.8683 45.6005 55 45.9185 55 46.25V55C55 57.7575 52.7575 60 50 60ZM6.25 37.5C6.04411 37.4999 5.84143 37.4489 5.65998 37.3516C5.47852 37.2544 5.3239 37.1138 5.20987 36.9423C5.09583 36.7709 5.02591 36.574 5.0063 36.369C4.9867 36.1641 5.01803 35.9574 5.0975 35.7675L10.0725 23.8425C10.5446 22.7055 11.3429 21.7337 12.3667 21.0499C13.3905 20.366 14.5938 20.0007 15.825 20H24.3C24.6315 20 24.9495 20.1317 25.1839 20.3661C25.4183 20.6005 25.55 20.9185 25.55 21.25C25.55 21.5815 25.4183 21.8995 25.1839 22.1339C24.9495 22.3683 24.6315 22.5 24.3 22.5H15.825C14.34 22.5 12.9575 23.4275 12.38 24.8075L7.405 36.7325C7.30892 36.9596 7.14822 37.1534 6.94286 37.2898C6.7375 37.4263 6.49656 37.4994 6.25 37.5ZM16.25 45H8.75C8.41848 45 8.10054 44.8683 7.86612 44.6339C7.6317 44.3995 7.5 44.0815 7.5 43.75C7.5 43.4185 7.6317 43.1005 7.86612 42.8661C8.10054 42.6317 8.41848 42.5 8.75 42.5H16.25C16.5815 42.5 16.8995 42.6317 17.1339 42.8661C17.3683 43.1005 17.5 43.4185 17.5 43.75C17.5 44.0815 17.3683 44.3995 17.1339 44.6339C16.8995 44.8683 16.5815 45 16.25 45ZM46.25 45H38.75C38.4185 45 38.1005 44.8683 37.8661 44.6339C37.6317 44.3995 37.5 44.0815 37.5 43.75C37.5 43.4185 37.6317 43.1005 37.8661 42.8661C38.1005 42.6317 38.4185 42.5 38.75 42.5H46.25C46.5815 42.5 46.8995 42.6317 47.1339 42.8661C47.3683 43.1005 47.5 43.4185 47.5 43.75C47.5 44.0815 47.3683 44.3995 47.1339 44.6339C46.8995 44.8683 46.5815 45 46.25 45ZM45 35C44.8332 35.0004 44.6681 34.9663 44.515 34.9C43.92 34.6525 30 28.635 30 16.34V5.8925C30 5.3575 30.3425 4.88 30.85 4.7075L44.6 0.0649956C44.8595 -0.0226418 45.1405 -0.0226418 45.4 0.0649956L59.15 4.7075C59.6575 4.88 60 5.3575 60 5.8925V16.34C60 28.635 46.08 34.6525 45.485 34.9025C45.3314 34.9669 45.1665 35 45 35ZM32.5 6.79V16.34C32.5 25.8025 42.6375 31.235 45 32.375C47.36 31.2325 57.5 25.78 57.5 16.34V6.79L45 2.57L32.5 6.79Z" fill="#CA0800"/>
<path d="M43.7501 22.5001L43.6801 22.4975C43.5045 22.4876 43.333 22.4408 43.1767 22.3602C43.0203 22.2797 42.8827 22.1672 42.7726 22.0301L37.7726 15.78C37.5878 15.5193 37.5097 15.1979 37.5542 14.8815C37.5987 14.565 37.7624 14.2776 38.0119 14.0779C38.2614 13.8783 38.5777 13.7815 38.8962 13.8075C39.2147 13.8335 39.5112 13.9801 39.7251 14.2175L43.8526 19.3776L51.6151 11.615C51.8508 11.3874 52.1666 11.2614 52.4943 11.2642C52.8221 11.2671 53.1356 11.3985 53.3674 11.6303C53.5991 11.862 53.7306 12.1756 53.7334 12.5033C53.7363 12.831 53.6103 13.1468 53.3826 13.3826L44.6326 22.1325C44.5173 22.2494 44.3799 22.3421 44.2283 22.4052C44.0768 22.4683 43.9142 22.5005 43.7501 22.5001Z" fill="#CA0800"/>
</svg>
