<svg width="60" height="60" viewBox="0 0 60 60" fill="none" xmlns="http://www.w3.org/2000/svg">
<path d="M27.5502 55H1.2502C1.06012 55.0003 0.872465 54.9573 0.701513 54.8742C0.530562 54.7911 0.380816 54.6701 0.263666 54.5204C0.146516 54.3707 0.0650477 54.1963 0.0254585 54.0103C-0.0141307 53.8244 -0.0107984 53.6319 0.035202 53.4475L1.3852 48.0225C1.71049 46.7059 2.36497 45.4934 3.28722 44.499C4.20947 43.5046 5.36924 42.7609 6.6577 42.3375L16.7027 38.99C18.1927 38.3675 19.1227 36.1225 19.2177 32.8125C18.0677 31.7675 15.6002 29.2175 15.6002 26.6025C15.6002 25.685 15.2927 25.4975 15.2902 25.495C14.9102 25.3925 14.7102 25.1575 14.5627 24.79C14.4377 24.475 13.3502 21.685 13.3502 19.8C13.3502 19.7 13.3627 19.6 13.3877 19.5025C13.5452 18.855 13.9252 18.205 14.4977 17.81L14.5502 16.8075C14.6127 15.5725 14.7002 13.925 14.7002 11.875C14.7002 7.185 20.4352 0 27.5002 0C33.8927 0 36.9877 3.405 37.5002 5.605C39.0627 6.47 40.4252 7.8975 40.4252 11.875V17.8175C41.0452 18.245 41.4277 18.93 41.5877 19.4025C41.6297 19.5308 41.6508 19.665 41.6502 19.8C41.6502 20.49 41.0902 21.1 40.4002 21.1C40.1066 21.1094 39.8196 21.012 39.5925 20.8258C39.3653 20.6396 39.2135 20.3772 39.1652 20.0875C39.1278 20.0114 39.078 19.9421 39.0177 19.8825C38.3302 19.8825 37.9227 19.365 37.9227 18.675V11.875C37.9227 8.6125 36.8752 8.085 36.2502 7.7725C35.8727 7.58 35.0752 7.18 35.0752 6.225C35.0302 5.4725 32.9252 2.5 27.5002 2.5C21.5502 2.5 17.2002 8.665 17.2002 11.875C17.2002 13.98 17.1127 15.67 17.0427 16.9375C17.0077 17.66 16.9752 18.2425 16.9752 18.675C16.975 18.9845 16.8602 19.2831 16.6529 19.513C16.4457 19.7429 16.1606 19.8879 15.8527 19.92C15.8927 20.945 16.4052 22.5525 16.7327 23.45C17.4027 23.925 18.1002 24.895 18.1002 26.6C18.1002 28.01 19.7452 30.0175 21.2752 31.2875C21.5602 31.525 21.7252 31.8775 21.7252 32.25C21.7252 36.995 20.2527 40.22 17.5777 41.33L7.4452 44.7125C6.55688 45.0045 5.75731 45.5174 5.12149 46.2031C4.48568 46.8888 4.03447 47.7247 3.8102 48.6325L2.8502 52.5H27.5502C27.8817 52.5 28.1997 52.6317 28.4341 52.8661C28.6685 53.1005 28.8002 53.4185 28.8002 53.75C28.8002 54.0815 28.6685 54.3995 28.4341 54.6339C28.1997 54.8683 27.8817 55 27.5502 55Z" fill="#CA0800"/>
<path d="M45 60C44.8332 60.0004 44.6681 59.9663 44.515 59.9C43.92 59.6525 30 53.635 30 41.34V30.8925C30 30.3575 30.3425 29.88 30.85 29.7075L44.6 25.065C44.8595 24.9774 45.1405 24.9774 45.4 25.065L59.15 29.7075C59.3979 29.7912 59.6132 29.9506 59.7657 30.1632C59.9182 30.3758 60.0002 30.6309 60 30.8925V41.34C60 53.635 46.08 59.6525 45.485 59.9025C45.3314 59.9669 45.1665 60 45 60ZM32.5 31.79V41.34C32.5 50.8025 42.6375 56.235 45 57.375C47.36 56.2325 57.5 50.78 57.5 41.34V31.79L45 27.57L32.5 31.79Z" fill="#CA0800"/>
<path d="M43.7501 47.5001L43.6826 47.4976C43.507 47.4879 43.3353 47.4412 43.1789 47.3607C43.0226 47.2801 42.885 47.1674 42.7751 47.0301L37.7751 40.7801C37.5679 40.5211 37.472 40.1905 37.5086 39.8609C37.5452 39.5313 37.7112 39.2298 37.9701 39.0226C38.229 38.8154 38.5596 38.7195 38.8892 38.7561C39.2188 38.7926 39.5204 38.9586 39.7276 39.2176L43.8526 44.3775L51.6151 36.615C51.8509 36.3874 52.1666 36.2614 52.4943 36.2642C52.8221 36.2671 53.1356 36.3985 53.3674 36.6303C53.5991 36.862 53.7306 37.1756 53.7334 37.5033C53.7363 37.831 53.6103 38.1468 53.3826 38.3825L44.6326 47.1326C44.5173 47.2494 44.3799 47.3421 44.2283 47.4052C44.0768 47.4683 43.9142 47.5005 43.7501 47.5001Z" fill="#CA0800"/>
</svg>
