<svg width="60" height="60" viewBox="0 0 60 60" fill="none" xmlns="http://www.w3.org/2000/svg">
<path d="M59.9762 58.5049L58.2638 49.9474C57.6887 47.065 55.7213 44.6824 53.0038 43.5674L42.7213 39.3524C42.4843 39.256 42.2235 39.2342 41.9737 39.2901C41.724 39.3459 41.4973 39.4767 41.3239 39.6649C38.1762 43.105 34.1538 44.9999 30.0012 44.9999C25.8487 44.9999 21.8263 43.1048 18.6763 39.6649C18.3238 39.28 17.7663 39.1574 17.2788 39.3524L6.99634 43.5674C4.28134 44.6824 2.31131 47.0674 1.73639 49.9474L0.0238104 58.5049C-0.0487285 58.8724 0.0463104 59.2524 0.283849 59.5424C0.521388 59.8323 0.878809 59.9999 1.25135 59.9999H58.7513C59.1238 59.9999 59.4788 59.8324 59.7163 59.5424C59.8335 59.3993 59.9175 59.2321 59.9625 59.0527C60.0074 58.8734 60.0121 58.6863 59.9762 58.5049ZM2.7763 57.4999L4.18876 50.4399C4.60126 48.3825 6.00622 46.6774 7.94626 45.8824L17.4412 41.9899C20.9762 45.55 25.4062 47.5 30.0012 47.5C34.5963 47.5 39.0262 45.55 42.5637 41.9875L52.0587 45.88C53.9987 46.6774 55.4037 48.3799 55.8162 50.4375L57.2262 57.5L2.7763 57.4999Z" fill="#CA0800"/>
<path d="M44.9885 17.8975C44.996 17.765 45.001 17.6326 45.001 17.5C45.001 16.4575 44.886 15.395 44.6635 14.3375C44.516 13.6625 43.8435 13.2275 43.1785 13.3775C42.501 13.5225 42.071 14.185 42.216 14.86C42.406 15.745 42.501 16.6325 42.501 17.5C42.501 17.7826 42.466 18.055 42.4335 18.3275L42.3985 18.64C42.361 19.015 42.4935 19.3876 42.756 19.6525C43.021 19.9201 43.3986 20.05 43.7661 20.015C43.7786 20.0125 43.791 20.0125 43.8036 20.01C44.1585 20.145 45.0011 21.4575 45.0011 23.75C45.0011 26.165 44.1662 27.505 43.6787 27.445C43.3387 27.235 42.9161 27.1975 42.5486 27.3475C42.3664 27.4224 42.2043 27.539 42.0754 27.6879C41.9464 27.8368 41.8542 28.0139 41.8061 28.205C40.0536 35.26 35.3111 40 30.0011 40C24.6911 40 19.9487 35.26 18.1986 28.205C18.0987 27.815 17.7861 27.5249 17.4186 27.3749C17.0412 27.2249 16.5886 27.29 16.2511 27.5C15.9411 27.5 15.001 26.17 15.001 23.75C15.001 21.4575 15.8435 20.145 16.196 20.01C16.2085 20.0124 16.221 20.015 16.2335 20.015C16.6035 20.05 16.9785 19.92 17.2435 19.655C17.5085 19.3875 17.641 19.015 17.6011 18.6425L17.566 18.33C17.536 18.0549 17.501 17.7825 17.501 17.4999C17.501 16.6324 17.596 15.7449 17.786 14.8599C17.931 14.1849 17.501 13.5225 16.826 13.3774C16.1635 13.2274 15.4885 13.6599 15.341 14.3374C15.116 15.3949 15.001 16.4574 15.001 17.4999C15.001 17.6074 15.0035 17.7174 15.011 17.8249C13.5185 18.6399 12.501 20.9173 12.501 23.7499C12.501 27.2274 14.036 29.8699 16.0959 29.9949C18.3684 37.5249 23.841 42.4998 30.0009 42.4998C36.1609 42.4998 41.6334 37.5249 43.9059 29.9949C45.9659 29.8699 47.5008 27.2274 47.5008 23.7499C47.5009 20.985 46.5285 18.7475 44.9885 17.8975Z" fill="#CA0800"/>
<path d="M44.0963 13.5375C43.5089 13.175 42.7388 13.355 42.3764 13.9425C41.4914 15.3725 37.4664 17.4999 30.0014 17.4999C22.5365 17.4999 18.5114 15.3724 17.6264 13.9425C17.264 13.3524 16.4939 13.175 15.9065 13.5375C15.319 13.8999 15.139 14.67 15.5015 15.2574C16.8539 17.445 21.464 19.9999 30.0014 19.9999C38.5388 19.9999 43.1489 17.4449 44.5013 15.2574C44.8664 14.6726 44.6839 13.9001 44.0963 13.5375Z" fill="#CA0800"/>
<path d="M46.251 7.49999C44.896 7.49999 42.7935 6.08495 40.5685 4.58249C37.381 2.43503 33.7685 0 30.001 0C26.2336 0 22.621 2.43503 19.4335 4.58249C17.2085 6.08507 15.106 7.49999 13.751 7.49999C13.061 7.49999 12.501 8.06002 12.501 8.75002V11.25C12.501 13.3175 14.1834 15 16.251 15H43.751C45.8185 15 47.5009 13.3175 47.5009 11.25V8.75002C47.5009 8.06002 46.941 7.49999 46.251 7.49999ZM45.001 11.25C45.001 11.94 44.4385 12.5 43.751 12.5H16.2511C15.5635 12.5 15.001 11.94 15.001 11.25V9.83506C16.771 9.39256 18.6835 8.10502 20.831 6.65753C23.721 4.70753 26.9984 2.50007 30.001 2.50007C33.0036 2.50007 36.281 4.70753 39.171 6.65753C41.3185 8.10502 43.231 9.39256 45.001 9.83506V11.25Z" fill="#CA0800"/>
<path d="M31.251 5H28.7511C28.0611 5 27.501 5.56004 27.501 6.25004V7.49996C27.501 8.87749 28.621 9.99991 30.001 9.99991C31.381 9.99991 32.501 8.87749 32.501 7.49996V6.25004C32.501 5.56004 31.941 5 31.251 5ZM46.251 47.5H41.251C40.561 47.5 40.0009 48.06 40.0009 48.75V51.25C40.0009 51.5824 40.1335 51.9 40.366 52.135L42.8659 54.6349C43.1012 54.8686 43.4193 54.9998 43.7509 54.9998C44.0825 54.9998 44.4007 54.8686 44.6359 54.6349L47.1359 52.135C47.3694 51.8995 47.5005 51.5815 47.5009 51.25V48.7499C47.5009 48.0599 46.941 47.5 46.251 47.5ZM45.001 50.7325L43.7509 51.9825L42.5009 50.7325V49.9999H45.0009L45.001 50.7325ZM26.251 44.9999C25.561 44.9999 25.001 45.5599 25.001 46.2499V58.7499C25.001 59.4399 25.561 60 26.251 60C26.941 60 27.501 59.4399 27.501 58.7499V46.2499C27.501 45.5599 26.941 44.9999 26.251 44.9999ZM33.751 44.9999C33.061 44.9999 32.501 45.5599 32.501 46.2499V58.7499C32.501 59.4399 33.061 60 33.751 60C34.441 60 35.001 59.4399 35.001 58.7499V46.2499C35.001 45.5599 34.441 44.9999 33.751 44.9999Z" fill="#CA0800"/>
</svg>
