<svg width="24" height="24" viewBox="0 0 24 24" fill="none" xmlns="http://www.w3.org/2000/svg">
<g clip-path="url(#clip0_198_2333)">
<path d="M18.6529 23.3866L12 19.2235L5.34704 23.3866C5.10536 23.5397 4.79359 23.5281 4.56086 23.3591C4.44739 23.2769 4.36116 23.1626 4.3133 23.0309C4.26544 22.8992 4.25815 22.7562 4.29236 22.6203L6.19571 15.0061L0.251403 9.96615C0.143992 9.87612 0.065943 9.75605 0.0272791 9.62134C-0.0113847 9.48663 -0.00889859 9.34343 0.0344183 9.21015C0.0776838 9.07674 0.159831 8.95932 0.270316 8.87294C0.380801 8.78656 0.51458 8.73517 0.654481 8.72537L8.41295 8.18358L11.3477 0.904461C11.5633 0.372992 12.4367 0.372992 12.6523 0.904461L15.587 8.18358L23.3454 8.72537C23.4853 8.73517 23.6191 8.78656 23.7296 8.87294C23.8401 8.95932 23.9222 9.07674 23.9655 9.21015C24.0088 9.34343 24.0113 9.48663 23.9727 9.62134C23.934 9.75605 23.8559 9.87612 23.7485 9.96615L17.8042 15.0061L19.7075 22.6204C19.7417 22.7563 19.7345 22.8993 19.6866 23.031C19.6387 23.1627 19.5525 23.277 19.439 23.3592C19.3257 23.4417 19.1903 23.4885 19.0502 23.4934C18.9101 23.4982 18.7717 23.4611 18.6529 23.3866Z" fill="#FDBC00"/>
</g>
<defs>
<clipPath id="clip0_198_2333">
<rect width="24" height="24" fill="white"/>
</clipPath>
</defs>
</svg>
