<svg width="16" height="16" viewBox="0 0 16 16" fill="none" xmlns="http://www.w3.org/2000/svg">
<path d="M12.4353 15.5911L7.99998 12.8156L3.5647 15.591C3.40357 15.6931 3.19573 15.6854 3.04057 15.5727C2.96493 15.5179 2.90744 15.4417 2.87554 15.3539C2.84363 15.2661 2.83877 15.1708 2.86157 15.0802L4.13048 10.004L0.167602 6.64408C0.0959945 6.58406 0.043962 6.50401 0.0181861 6.4142C-0.00758983 6.3244 -0.00593239 6.22894 0.0229456 6.14008C0.0517892 6.05114 0.106554 5.97286 0.180211 5.91527C0.253867 5.85768 0.343053 5.82342 0.436321 5.81689L5.60863 5.4557L7.5651 0.602954C7.70885 0.248641 8.2911 0.248641 8.43485 0.602954L10.3913 5.4557L15.5636 5.81689C15.6569 5.82342 15.7461 5.85768 15.8197 5.91527C15.8934 5.97286 15.9482 6.05114 15.977 6.14008C16.0059 6.22894 16.0075 6.3244 15.9818 6.4142C15.956 6.50401 15.904 6.58406 15.8324 6.64408L11.8694 10.0041L13.1384 15.0802C13.1612 15.1708 13.1563 15.2662 13.1244 15.354C13.0925 15.4418 13.035 15.518 12.9594 15.5728C12.8838 15.6278 12.7935 15.659 12.7001 15.6622C12.6067 15.6655 12.5145 15.6407 12.4353 15.5911Z" fill="#FDBC00"/>
</svg>
