<svg width="16" height="16" viewBox="0 0 16 16" fill="none" xmlns="http://www.w3.org/2000/svg">
<path fill-rule="evenodd" clip-rule="evenodd" d="M0.989925 7.11041C4.85539 5.30404 7.43297 4.11317 8.72267 3.53779C12.405 1.89499 13.1702 1.60962 13.6689 1.6002C13.7786 1.59813 14.0238 1.62728 14.1827 1.76555C14.3169 1.8823 14.3538 2.04001 14.3714 2.15071C14.3891 2.2614 14.4111 2.51356 14.3936 2.71059C14.194 4.95946 13.3306 10.4169 12.8913 12.9356C12.7055 14.0014 12.3395 14.3588 11.9852 14.3938C11.2152 14.4698 10.6304 13.8479 9.88464 13.3236C8.71762 12.503 8.05832 11.9923 6.92553 11.1916C5.61638 10.2662 6.46505 9.75765 7.21112 8.92649C7.40638 8.70897 10.7991 5.39904 10.8647 5.09877C10.873 5.06122 10.8806 4.92124 10.803 4.84733C10.7255 4.77341 10.6111 4.79869 10.5285 4.81879C10.4115 4.84729 8.54712 6.16899 4.9355 8.78392C4.40632 9.17368 3.927 9.36358 3.49754 9.35363C3.0241 9.34266 2.1134 9.06651 1.43638 8.83046C0.605995 8.54094 -0.0539805 8.38787 0.00348853 7.89617C0.033422 7.64006 0.362234 7.37815 0.989925 7.11041Z" fill="white"/>
</svg>
